<svg xmlns="http://www.w3.org/2000/svg" width="48" height="48" viewBox="0 0 48 48">
    <g fill="none" fill-rule="evenodd">
        <g>
            <g>
                <path fill="#FFF" fill-opacity=".01" d="M0 0L48 0 48 48 0 48z" transform="translate(-160 -206) translate(160 206)"/>
                <path stroke="#222" stroke-linejoin="round" stroke-width="2" d="M10.286 7.714H37.714999999999996V35.143H10.286z" transform="translate(-160 -206) translate(160 206)"/>
                <path stroke="#222" stroke-linejoin="round" stroke-width="2" d="M15.429 12.857H37.715V35.143H15.429z" transform="translate(-160 -206) translate(160 206)"/>
                <path fill="#D8D8D8" stroke="#222" stroke-linejoin="round" stroke-width="2" d="M20.571 18H32.571V30H20.571z" transform="translate(-160 -206) translate(160 206)"/>
                <path fill="#FFF" stroke="#222" stroke-width="2" d="M33.847 43.432c-.476.234-1.048.03-1.267-.457l-2.076-4.613-2.39 1.966c-.162.136-.362.214-.59.214-.526 0-.953-.436-.953-.973V24.973c0-.537.427-.973.953-.973.228 0 .457.078.619.214l10.941 9.38c.41.35.458.964.124 1.372-.143.176-.343.292-.543.331l-3.009.604 2.095 4.602c.248.487.02 1.06-.457 1.285l-3.447 1.644z" transform="translate(-160 -206) translate(160 206)"/>
            </g>
        </g>
    </g>
</svg>
