<svg xmlns="http://www.w3.org/2000/svg" width="48" height="48" viewBox="0 0 48 48">
    <g fill="none" fill-rule="evenodd">
        <g>
            <g>
                <g>
                    <path fill="#FFF" fill-opacity=".01" d="M0 0L48 0 48 48 0 48z" transform="translate(-1024 -754) translate(1024 754)"/>
                    <path fill="#D8D8D8" d="M14.066 36.145L16.074 39.145 23.672 20.808 18.122 18.509 10.525 36.845z" transform="translate(-1024 -754) translate(1024 754)"/>
                    <path fill="#D8D8D8" d="M36.931 37.406L29.1 18.509 23.38 20.879 31.211 39.777 33.28 36.685z" transform="translate(-1024 -754) translate(1024 754)"/>
                    <path fill="#222" fill-rule="nonzero" d="M7.714 39.148l5.563-1.1 3.154 4.712 9.48-22.879-8.717-3.612-9.48 22.88zm10.408-20.64l5.55 2.3-7.598 18.337-2.008-3-3.541.7 7.597-18.336z" transform="translate(-1024 -754) translate(1024 754)"/>
                    <path fill="#222" fill-rule="nonzero" d="M21.33 19.88l9.48 22.88 3.153-4.712 5.563 1.1-9.48-22.88-8.717 3.613zm2.24.928l5.549-2.3 7.597 18.336-3.54-.7-2.01 3-7.596-18.336z" transform="translate(-1024 -754) translate(1024 754)"/>
                    <path fill="#222" d="M25.296 29.028c-.413 0-.766-.295-.842-.7L20.647 7.884c-.061-.303.046-.616.28-.818.234-.202.558-.263.85-.158.29.104.503.357.555.662l3.807 20.443c.047.25-.02.51-.183.706-.163.196-.405.31-.66.309" transform="translate(-1024 -754) translate(1024 754)"/>
                    <path fill="#222" d="M31.305 25.023L13.426 13.411c-.26-.17-.41-.466-.389-.776.021-.31.208-.585.489-.718.28-.133.612-.103.865.077l17.878 11.612" transform="translate(-1024 -754) translate(1024 754)"/>
                    <path fill="#222" d="M12.065 22.438c-.444.004-.818-.333-.86-.776-.04-.443.263-.843.7-.923l23.278-4.431c.305-.066.621.038.827.272.206.234.268.561.163.855-.106.293-.362.506-.67.556l-23.277 4.432c-.053.01-.107.016-.16.015" transform="translate(-1024 -754) translate(1024 754)"/>
                    <path fill="#222" d="M19.896 27.677c-.31.001-.596-.166-.748-.436-.152-.27-.146-.601.016-.866l10.47-17.252c.247-.404.774-.533 1.179-.287.405.246.533.773.288 1.178L20.63 27.266c-.156.256-.434.412-.734.412" transform="translate(-1024 -754) translate(1024 754)"/>
                    <path fill="#222" d="M22.599 29.028c-.251 0-.49-.11-.653-.3-.163-.191-.235-.444-.195-.692L25.005 7.58c.08-.462.517-.774.98-.7.462.073.78.505.713.969l-3.255 20.456c-.066.416-.424.722-.845.723" transform="translate(-1024 -754) translate(1024 754)"/>
                    <path fill="#222" d="M29.347 26.328c-.264 0-.514-.121-.676-.33L16.308 10.136c-.19-.242-.238-.567-.123-.852.115-.285.374-.487.679-.529.304-.042.608.083.796.326l12.362 15.862c.202.258.238.609.095.903-.144.294-.443.481-.77.481" transform="translate(-1024 -754) translate(1024 754)"/>
                    <path fill="#222" d="M35.357 22.369c-.052 0-.104-.005-.156-.015l-23.303-4.292c-.453-.098-.746-.538-.662-.993.084-.456.514-.762.972-.692l23.303 4.292c.44.077.746.477.706.921-.04.444-.414.782-.86.779" transform="translate(-1024 -754) translate(1024 754)"/>
                    <path fill="#222" d="M15.176 24.523l17.8-12.585c.39-.268.923-.17 1.192.22.269.39.17.924-.22 1.193l-17.8 12.584" transform="translate(-1024 -754) translate(1024 754)"/>
                    <path fill="#FFF" d="M34.34 19.224c0 5.952-4.825 10.777-10.776 10.777-5.952 0-10.777-4.825-10.777-10.777 0-5.952 4.825-10.777 10.777-10.777 5.952 0 10.777 4.826 10.777 10.777" transform="translate(-1024 -754) translate(1024 754)"/>
                    <path fill="#222" fill-rule="nonzero" d="M23.563 9.304c-5.469 0-9.92 4.45-9.92 9.92s4.45 9.92 9.92 9.92 9.92-4.45 9.92-9.92-4.45-9.92-9.92-9.92m0 21.554c-6.415 0-11.634-5.22-11.634-11.634 0-6.415 5.22-11.634 11.634-11.634 6.415 0 11.634 5.22 11.634 11.634 0 6.415-5.22 11.634-11.634 11.634" transform="translate(-1024 -754) translate(1024 754)"/>
                    <path fill="#222" d="M22.822 24.415c-.227 0-.445-.09-.606-.251l-3.358-3.359 1.212-1.212 2.572 2.572 4.523-7.75 1.48.863-5.082 8.712c-.154.263-.436.425-.74.425" transform="translate(-1024 -754) translate(1024 754)"/>
                </g>
            </g>
        </g>
    </g>
</svg>
