<svg xmlns="http://www.w3.org/2000/svg" width="48" height="48" viewBox="0 0 48 48">
    <g fill="none" fill-rule="evenodd">
        <g>
            <g>
                <g>
                    <path fill="#FFF" fill-opacity=".01" d="M0 0L48 0 48 48 0 48z" transform="translate(-736 -754) translate(736 754)"/>
                    <path stroke="#222" stroke-width="2" d="M23.6 25.2l-11.8 5.9c-.5.2-.7.8-.4 1.3.1.2.3.4.4.4l11.8 5.9c.3.1.6.1.9 0l11.8-5.9c.5-.2.7-.8.4-1.3-.1-.2-.3-.4-.4-.4l-11.8-5.9c-.3-.1-.7-.1-.9 0z" transform="translate(-736 -754) translate(736 754)"/>
                    <path stroke="#222" stroke-width=".974" d="M29.9 26.9L15.1 34.3M33.7 29.5L18.9 36.9" transform="translate(-736 -754) translate(736 754)"/>
                    <path fill="#D8D8D8" stroke="#222" stroke-width="2" d="M23.6 17.2l-11.8 5.9c-.5.2-.7.8-.4 1.3.1.2.3.4.4.4l11.8 5.9c.3.1.6.1.9 0l11.8-5.9c.5-.2.7-.8.4-1.3-.1-.2-.3-.4-.4-.4l-11.8-5.9c-.3-.1-.7-.1-.9 0z" transform="translate(-736 -754) translate(736 754)"/>
                    <path fill="#FFF" stroke="#222" stroke-width="2" d="M23.6 9.2l-11.8 5.9c-.5.2-.7.8-.4 1.3.1.2.3.4.4.4l11.8 5.9c.3.1.6.1.9 0l11.8-5.9c.5-.2.7-.8.4-1.3-.1-.2-.3-.4-.4-.4L24.5 9.2c-.3-.1-.7-.1-.9 0z" transform="translate(-736 -754) translate(736 754)"/>
                </g>
            </g>
        </g>
    </g>
</svg>
