<svg xmlns="http://www.w3.org/2000/svg" width="48" height="48" viewBox="0 0 48 48">
    <g fill="none" fill-rule="evenodd">
        <g>
            <g>
                <g transform="translate(-448 -754) translate(448 753.999) translate(5.143 7.714)">
                    <g>
                        <path fill="#221E1F" fill-rule="nonzero" d="M9.024 31.262h20.443V14.076c0-.164.162-.41.243-.492.164-.163.407-.163.571-.08l4.072 1.39 2.687-7.529-10.18-5.892h-3.094c-.408 2.21-2.28 3.846-4.562 3.846-2.28 0-4.153-1.718-4.48-3.928H11.63L1.45 7.284l2.687 7.447L8.21 13.34c.163-.082.408-.082.57.081.163.163.245.328.245.491v17.35zm21.093 1.31H8.372c-.407 0-.651-.246-.651-.655v-16.94l-3.746 1.227c-.326.164-.734-.082-.814-.41L.065 7.203c-.162-.328 0-.655.245-.819L11.142.163c.08-.082.163-.163.325-.163h3.91c.407 0 .652.246.652.655 0 1.8 1.465 3.273 3.257 3.273s3.258-1.473 3.258-3.273c0-.41.244-.655.65-.655h3.91c.163 0 .163 0 .327.081l10.83 6.22c.245.164.408.492.245.819l-3.095 8.675c-.163.327-.488.49-.814.409l-3.746-1.228v17.022c-.082.245-.407.573-.734.573z"/>
                        <path stroke="#221E1F" stroke-width=".25" d="M9.024 31.262h20.443V14.076c0-.164.162-.41.243-.492.164-.163.407-.163.571-.08l4.072 1.39 2.687-7.529-10.18-5.892h-3.094c-.408 2.21-2.28 3.846-4.562 3.846-2.28 0-4.153-1.718-4.48-3.928H11.63L1.45 7.284l2.687 7.447L8.21 13.34c.163-.082.408-.082.57.081.163.163.245.328.245.491v17.35zm21.093 1.31H8.372c-.407 0-.651-.246-.651-.655v-16.94l-3.746 1.227c-.326.164-.734-.082-.814-.41L.065 7.203c-.162-.328 0-.655.245-.819L11.142.163c.08-.082.163-.163.325-.163h3.91c.407 0 .652.246.652.655 0 1.8 1.465 3.273 3.257 3.273s3.258-1.473 3.258-3.273c0-.41.244-.655.65-.655h3.91c.163 0 .163 0 .327.081l10.83 6.22c.245.164.408.492.245.819l-3.095 8.675c-.163.327-.488.49-.814.409l-3.746-1.228v17.022c-.082.245-.407.573-.734.573z"/>
                    </g>
                    <rect width="12.571" height="12.571" x="5.286" y="20.714" fill="#D8D8D8" stroke="#221E1F" stroke-width="2" rx="2"/>
                    <path stroke="#D8D8D8" stroke-width="2" d="M8.143 27.44L11.571 30.869 19.245 23.14"/>
                    <path fill="#FFF" d="M18.857 20.571H23.143V26.571H18.857z"/>
                    <path stroke="#221E1F" stroke-width="2" d="M8.143 25.726L11.571 29.154 21.869 18.857"/>
                </g>
                <g>
                    <path d="M0 0H48V48H0z" transform="translate(-448 -754) translate(448 753.999)"/>
                </g>
            </g>
        </g>
    </g>
</svg>
